<svg xmlns="http://www.w3.org/2000/svg" viewBox="0 0 432.07 231.27" width="30px">
  <path d="M368.13 133.87h30.47v30.47h-30.47zM301.2 0h30.47v30.47H301.2zM334.67 33.47h30.47v30.47h-30.47zM368.13 66.93h30.47V97.4h-30.47zM33.47 100.4h30.47v30.47H33.47zM66.93 100.4H97.4v30.47H66.93zM100.4 100.4h30.47v30.47H100.4zM133.87 100.4h30.47v30.47h-30.47zM167.33 100.4h30.47v30.47h-30.47zM200.8 100.4h30.47v30.47H200.8zM234.27 100.4h30.47v30.47h-30.47zM267.73 100.4h30.47v30.47h-30.47zM301.2 100.4h30.47v30.47H301.2zM334.67 100.4h30.47v30.47h-30.47zM368.13 100.4h30.47v30.47h-30.47zM401.6 100.4h30.47v30.47H401.6zM0 133.87h30.47v30.47H0zM0 167.33h30.47v30.47H0zM334.67 167.33h30.47v30.47h-30.47zM33.47 200.8h30.47v30.47H33.47zM66.93 200.8H97.4v30.47H66.93zM301.2 200.8h30.47v30.47H301.2z"/>
</svg>