<svg xmlns="http://www.w3.org/2000/svg" viewBox="0 0 374.68 306.41"  width="50">
  <path d="M334.29,25.57H290.54V3.7h43.75Zm-21.88,262.5h21.88V310H290.54V288.07ZM356.16,135H334.29V25.57h21.87V135ZM334.29,288.07V178.7h21.87V288.07ZM356.16,178.7V135H378V178.7Z" transform="translate(-3.35 -3.7)"/>
  <path d="M47.1,3.86H90.85V25.73H47.1ZM90.85,288.23v21.88H47.1V288.23H90.85Zm-65.62-175V25.73H47.1V135.11H25.23Zm0,175V178.86H47.1V288.23ZM3.35,178.86V135.11H25.23v43.75Z" transform="translate(-3.35 -3.7)"/>
  <path d="M208,288.18V222.55H186.16v21.87H164.29v43.76H142.41V244.42h21.88V222.55h21.87V200.67H164.29V178.8H142.41V69.42h21.88V47.55h21.87V25.67H208V3.8h21.87V200.67h21.88v21.88H229.91v65.63Zm0-87.51V47.55H186.16V69.42H164.29V178.8h21.87v21.87Zm-21.88,87.51H208v21.87H164.29V288.18Z"/>
</svg>