<svg xmlns="http://www.w3.org/2000/svg" data-name="Layer 1" viewBox="0 0 623.29 584.47" fill="#e91d63"><path d="M75.9 536v18h-18v-18ZM57.9 428v-18h18v18ZM57.9 276v-18h18v18ZM75.9 200h-18v-18h18ZM75.9 106v18h-18v-18Z"/><path d="M589.9 384v18h-18v-18Z" opacity=".2"/><path d="M75.9 48h-18V30h18Z"/><path d="M572.9 562h18v18h-18Z" opacity=".2"/><path d="M512.9 554h-18v-18h18Z" opacity=".4"/><path d="M417.9 30h18v18h-18ZM417.9 106h18v18h-18ZM435.9 428h-18v-18h18Z" opacity=".5"/><path d="M392.9 200v-18h18v18Z" opacity=".6"/><path d="M314.9 276v-18h18v18ZM314.9 334h18v18h-18ZM314.9 478v-18h18v18Z" opacity=".7"/><path d="M255.9 30v18h-18V30ZM237.9 124v-18h18v18ZM255.9 182v18h-18v-18ZM255.9 276h-18v-18h18Z" opacity=".9"/><path d="M152.9 276h-18v-18h18ZM134.9 182h18v18h-18ZM153.9 106v18h-18v-18ZM134.9 30h18v18h-18ZM160.9 48V30h18v18ZM160.9 460h18v18h-18ZM178.9 428h-18v-18h18ZM160.9 106h18v18h-18ZM178.9 352h-18v-18h18ZM178.9 182v18h-18v-18ZM160.9 258h18v18h-18ZM160.9 402v-18h18v18ZM160.9 486h18v18h-18Z"/><path d="M212.9 428v-18h18v18ZM230.9 334v18h-18v-18Z" opacity=".9"/><path d="M152.9 98h-18V80h18ZM153.9 333.68V352h-18.5c0-5.29-.1-10.58.11-15.85a3.4 3.4 0 0 1 2.36-2.32c5.27-.26 10.55-.15 16.03-.15ZM153.9 410v18h-18v-18ZM134.9 478v-18h18v18ZM152.9 504h-18v-18h18Z"/><path d="M237.9 536h18v18h-18ZM255.9 410v18h-18v-18ZM255.9 402h-18v-18h18Z" opacity=".9"/><path d="M153.9 536v18h-18v-18ZM134.9 580v-18h18v18Z"/><path d="M281.9 258v18h-18v-18Z" opacity=".8"/><path d="M332.9 554h-18v-18h18ZM332.9 486v18h-18v-18ZM332.9 410v18h-18v-18ZM332.9 384v18h-18v-18Z" opacity=".7"/><path d="M101.9 30v18h-18V30Z"/><path d="M410.9 384v18h-18v-18Z" opacity=".6"/><path d="M101.9 98h-18V80h18ZM101.9 258v18h-18v-18ZM101.9 352h-18v-18h18ZM101.9 460v18h-18v-18Z"/><path d="M435.9 580h-18v-18h18Z" opacity=".5"/><path d="M83.9 554v-18h18v18Z"/><path d="M417.9 384h18v18h-18ZM435.9 334v18h-18v-18Z" opacity=".5"/><path d="M494.9 428v-18h18v18ZM512.9 402h-18v-18h18ZM494.9 308h18v18h-18Z" opacity=".4"/><path d="M75.9 80v18h-18V80Z"/><path d="M615.9 504h-18v-18h18Z" opacity=".2"/><path d="M57.9 334h18v18h-18ZM75.9 562v18h-18v-18ZM101.9 182v18h-18v-18Z"/><path d="M392.9 48V30h18v18ZM391.9 98V80h18v18Z" opacity=".6"/><path d="M237.9 334h18v18h-18Z" opacity=".9"/><path d="M160.9 580v-18h18v18Z"/><path d="M255.9 562v18h-18v-18Z" opacity=".9"/><path d="M57.9 384h18v18h-18ZM101.9 124h-18v-18h18Z"/><path d="M230.9 106v18h-18v-18Z" opacity=".9"/><path d="M263.9 504v-18h18v18Z" opacity=".8"/><path d="M512.9 504h-18v-18h18Z" opacity=".4"/><path d="M230.9 402h-18v-18h18Z" opacity=".9"/><path d="M83.9 580v-18h18v18Z"/><path d="M211.9 98V80h18v18ZM230.9 48h-18V30h18ZM212.9 580v-18h18v18Z" opacity=".9"/><path d="M410.9 106v18h-18v-18Z" opacity=".6"/><path d="M75.9 504h-18v-18h18ZM75.9 460v18h-18v-18Z"/><path d="M212.9 276v-18h18v18ZM230.9 308v18h-18v-18ZM212.9 174v-18h18v18Z" opacity=".9"/><path d="M417.9 504v-18h18v18Z" opacity=".5"/><path d="M410.9 156v18h-18v-18Z" opacity=".6"/><path d="M263.9 460h18v18h-18ZM282.23 428H263.9v-18.36c5.4 0 10.79-.1 16.16.12.76 0 2 1.66 2.07 2.59.21 5.1.1 10.21.1 15.65Z" opacity=".8"/><path d="M538.9 486v18h-18v-18Z" opacity=".3"/><path d="M340.9 182h18v18h-18ZM340.9 460h18v18h-18ZM340.9 486h18v18h-18Z" opacity=".7"/><path d="M160.9 174v-18h18v18Z"/><path d="M340.9 384h18v18h-18ZM358.9 30v18h-18V30Z" opacity=".7"/><path d="M83.9 384h18v18h-18ZM101.9 250h-18v-18h18ZM101.9 131v18h-18v-18ZM134.9 326v-18h18v18ZM75.9 156v18h-18v-18Z"/><path d="M417.9 55h18v18h-18ZM417.9 149v-18h18v18ZM435.9 156v18h-18v-18Z" opacity=".5"/><path d="M127.9 562v18h-18v-18Z"/><path d="M417.9 435h18v18h-18ZM417.9 529v-18h18v18ZM443.9 554v-18h18v18Z" opacity=".5"/><path d="M410.9 4v18h-18V4Z" opacity=".6"/><path d="M127.9 536v18h-18v-18Z"/><path d="M443.9 428v-18h18v18Z" opacity=".5"/><path d="M109.9 504v-18h18v18ZM127.9 478h-18v-18h18ZM127.9 410v18h-18v-18Z"/><path d="M461.9 200h-18v-18h18Z" opacity=".5"/><path d="M75.9 250h-18v-18h18Z"/><path d="M384.9 30v18h-18V30Z" opacity=".6"/><path d="M57.9 149v-18h18v18Z"/><path d="M366.9 124.33V106h18.18c0 5.53.1 10.8-.12 16.06a3.42 3.42 0 0 1-2.47 2.21c-5.11.17-10.23.06-15.59.06ZM366.9 334h18v18h-18ZM366.9 402v-18h18v18ZM384.9 410v18h-18v-18ZM384.9 504h-18v-18h18ZM384.9 554h-18v-18h18Z" opacity=".6"/><path d="M109.9 402v-18h18v18ZM50.9 562v18h-18v-18ZM32.9 554v-18h18v18ZM75.9 73h-18V55h18ZM57.9 22V4h18v18ZM127.9 352h-18v-18h18ZM101.9 428h-18v-18h18Z"/><path d="M358.9 562v18h-18v-18Z" opacity=".7"/><path d="M469.9 504v-18h18v18Z" opacity=".4"/><path d="M340.9 124v-18h18v18Z" opacity=".7"/><path d="M487.9 384v18h-18v-18Z" opacity=".4"/><path d="M358.9 334v18h-18v-18ZM340.9 410h18v18h-18ZM358.9 554h-18v-18h18Z" opacity=".7"/><path d="M109.9 276v-18h18v18Z"/><path d="M314.9 22V4h18v18ZM314.9 73V55h18v18ZM314.9 207h18v18h-18ZM332.9 326h-18v-18h18Z" opacity=".7"/><path d="M24.9 410v18h-18v-18ZM6.9 478v-18h18v18ZM6.9 486h18v18h-18Z"/><path d="M469.9 200v-18h18v18Z" opacity=".4"/><path d="M6.9 536h18v18h-18ZM32.9 486h18v18h-18Z"/><path d="M307.9 48h-18V30h18ZM289.9 258h18v18h-18ZM307.9 352h-18v-18h18ZM307.9 410v18h-18v-18Z" opacity=".8"/><path d="M57.9 301v-18h18v18ZM24.9 30v18h-18V30Z"/><path d="M289.9 504v-18h18v18ZM289.9 554v-18h18v18Z" opacity=".8"/><path d="M127.9 182v18h-18v-18ZM109.9 124v-18h18v18ZM83.9 435h18v18h-18ZM50.9 460v18h-18v-18ZM127.9 80v18h-18V80Z"/><path d="M281.9 232v18h-18v-18Z" opacity=".8"/><path d="M109.9 30h18v18h-18Z"/><path d="M281.9 326h-18v-18h18Z" opacity=".8"/><path d="M494.9 207h18v18h-18Z" opacity=".4"/><path d="M520.9 580v-18h18v18ZM538.9 536v18h-18v-18Z" opacity=".3"/><path d="M83.9 301v-18h18v18Z"/><path d="M520.9 352v-18h18v18ZM538.9 200h-18v-18h18Z" opacity=".3"/><path d="M281.9 48h-18V30h18ZM281.9 352h-18v-18h18ZM263.9 554.4V536h18.27c0 5.45.1 10.84-.12 16.23 0 .77-1.64 2.07-2.55 2.11-5.11.17-10.22.06-15.6.06Z" opacity=".8"/><path d="M255.9 22h-18V4h18ZM255.9 73h-18V55h18ZM255.9 131v18h-18v-18Z" opacity=".9"/><path d="M6.9 106h18v18h-18Z"/><path d="M255.9 225h-18v-18h18ZM255.9 250h-18v-18h18ZM237.9 326v-18h18v18Z" opacity=".9"/><path d="M75.9 326h-18v-18h18ZM75.9 377h-18v-18h18Z"/><path d="M564.9 554h-18v-18h18Z" opacity=".3"/><path d="M212.9 22V4h18v18Z" opacity=".9"/><path d="M564.9 428h-18v-18h18ZM564.9 334v18h-18v-18Z" opacity=".3"/><path d="M24.9 384v18h-18v-18Z"/><path d="M571.9 511h18v18h-18Z" opacity=".2"/><path d="M230.9 207v18h-18v-18Z" opacity=".9"/><path d="M571.9 207h18v18h-18ZM597.9 308h18v18h-18ZM615.9 174h-18v-18h18Z" opacity=".2"/><path d="M6.9 334h18v18h-18ZM75.9 435v18h-18v-18ZM32.9 410h18v18h-18ZM186.9 48V30h18v18ZM50.9 384v18h-18v-18ZM204.9 98h-18V80h18ZM204.9 124h-18v-18h18ZM32.9 352v-18h18v18ZM101.9 174h-18v-18h18ZM204.9 182v18h-18v-18ZM186.9 276v-18h18v18ZM32.9 276v-18h18v18ZM101.9 55v18h-18V55ZM186.9 352v-18h18v18ZM204.9 402h-18v-18h18ZM204.9 410v18h-18v-18ZM32.9 182h18v18h-18ZM204.9 486v18h-18v-18ZM50.9 124h-18v-18h18ZM204.9 536v18h-18v-18ZM204.9 562v18h-18v-18ZM134.9 529v-18h18v18ZM50.9 48h-18V30h18ZM101.9 22h-18V4h18ZM178.9 22h-18V4h18ZM178.9 131v18h-18v-18ZM160.9 225v-18h18v18ZM160.9 232h18v18h-18ZM178.9 283v18h-18v-18ZM160.9 326v-18h18v18ZM178.9 435v18h-18v-18ZM160.9 511h18v18h-18ZM75.9 511v18h-18v-18ZM6.9 200v-18h18v18ZM134.9 22V4h18v18ZM134.9 453v-18h18v18ZM134.9 149v-18h18v18ZM152.9 174h-18v-18h18ZM6.9 276v-18h18v18ZM134.9 225v-18h18v18ZM134.9 301v-18h18v18ZM152.9 377h-18v-18h18Z"/><path d="M391.9 435h18v18h-18ZM384.9 562v18h-18v-18Z" opacity=".6"/><path d="M230.9 232v18h-18v-18ZM212.9 73V55h18v18Z" opacity=".9"/><path d="M101.9 207v18h-18v-18Z"/><path d="M487.9 308v18h-18v-18Z" opacity=".4"/><path d="M307.9 384v18h-18v-18Z" opacity=".8"/><path d="M6.9 580v-18h18v18Z"/><path d="M307.9 562v18h-18v-18Z" opacity=".8"/><path d="M443.9 402v-18h18v18Z" opacity=".5"/><path d="M263.9 283h18v18h-18ZM281.9 55v18h-18V55Z" opacity=".8"/><path d="M83.9 529v-18h18v18ZM101.9 486v18h-18v-18Z"/><path d="M263.9 225v-18h18v18Z" opacity=".8"/><path d="M83.9 359h18v18h-18ZM83.9 326v-18h18v18ZM50.9 98h-18V80h18Z"/><path d="M281.9 580h-18v-18h18Z" opacity=".8"/><path d="M487.9 562v18h-18v-18Z" opacity=".4"/><path d="M6.9 98V80h18v18Z"/><path d="M263.9 529v-18h18v18Z" opacity=".8"/><path d="M212.9 301v-18h18v18Z" opacity=".9"/><path d="M263.9 4h18v18h-18Z" opacity=".8"/><path d="M340.9 80h18v18h-18Z" opacity=".7"/><path d="M307.9 73h-18V55h18Z" opacity=".8"/><path d="M50.9 4v18h-18V4ZM24.9 326h-18v-18h18ZM186.9 308h18v18h-18Z"/><path d="M384.9 73h-18V55h18ZM366.9 156h18v18h-18Z" opacity=".6"/><path d="M358.9 55v18h-18V55ZM340.9 435h18v18h-18ZM358.9 511v18h-18v-18Z" opacity=".7"/><path d="M281.9 435v18h-18v-18ZM289.9 250v-18h18v18Z" opacity=".8"/><path d="M50.9 511v18h-18v-18ZM109.9 156h18v18h-18Z"/><path d="M289.9 435h18v18h-18ZM307.9 529h-18v-18h18Z" opacity=".8"/><path d="M358.9 4v18h-18V4Z" opacity=".7"/><path d="M204.9 156v18h-18v-18ZM32.9 308h18v18h-18Z"/><path d="M443.9 326v-18h18v18Z" opacity=".5"/><path d="M469.9 156h18v18h-18Z" opacity=".4"/><path d="M186.9 250v-18h18v18Z"/><path d="M520.9 453v-18h18v18Z" opacity=".3"/><path d="M24.9 156v18h-18v-18ZM50.9 55v18h-18V55ZM109.9 326v-18h18v18ZM127.9 453h-18v-18h18ZM127.9 377h-18v-18h18ZM127.9 283v18h-18v-18ZM109.9 250v-18h18v18ZM127.9 207v18h-18v-18ZM127.9 149h-18v-18h18ZM109.9 55h18v18h-18ZM127.9 4v18h-18V4ZM204.9 529h-18v-18h18ZM32.9 149v-18h18v18ZM32.9 174v-18h18v18ZM186.9 435h18v18h-18ZM32.9 225v-18h18v18ZM50.9 232v18h-18v-18ZM204.9 283v18h-18v-18ZM50.9 301h-18v-18h18ZM204.9 207v18h-18v-18ZM186.9 131h18v18h-18ZM32.9 359h18v18h-18ZM204.9 55v18h-18V55ZM204.9 22h-18V4h18Z"/><path d="M307.9 4v18h-18V4Z" opacity=".8"/><path d="M358.9 174h-18v-18h18Z" opacity=".7"/><path d="M384.9 207v18h-18v-18ZM384.9 149h-18v-18h18Z" opacity=".6"/><path d="M443.9 529v-18h18v18ZM443.9 453v-18h18v18ZM443.9 131h18v18h-18Z" opacity=".5"/><path d="M487.9 529h-18v-18h18ZM487.9 435v18h-18v-18ZM487.9 207v18h-18v-18Z" opacity=".4"/><path d="M6.9 22V4h18v18Z"/><path d="M487.9 131v18h-18v-18Z" opacity=".4"/><path d="M24.9 73h-18V55h18Z"/><path d="M520.9 511h18v18h-18ZM520.9 149v-18h18v18Z" opacity=".3"/><path d="M24.9 131v18h-18v-18Z"/><path d="M564.9 225h-18v-18h18Z" opacity=".3"/><path d="M6.9 225v-18h18v18ZM24.9 250h-18v-18h18ZM24.9 301h-18v-18h18ZM6.9 359h18v18h-18ZM6.9 435h18v18h-18ZM24.9 529h-18v-18h18Z"/><path d="M230.9 377h-18v-18h18Z" opacity=".9"/><path d="M205.9 377h-18v-18h18Z"/><path d="M281.9 359v18h-18v-18Z" opacity=".8"/><path d="M340.9 358h18v18h-18Z" opacity=".7"/><path d="M366.9 358h18v18h-18Z" opacity=".6"/><path d="M443.9 358h18v18h-18Z" opacity=".5"/><path d="M392.9 250v-18h18v18Z" opacity=".6"/><path d="M443.47 276.71v-18h18v18Z" opacity=".5"/><path d="M520.76 21.53v-18h18v18Z" opacity=".3"/><path d="M573.7 30h18v18h-18Z" opacity=".2"/><path d="M495.35 55.41h18v18h-18Z" opacity=".4"/></svg>