<?xml version="1.0" standalone="no"?>
<!DOCTYPE svg PUBLIC "-//W3C//DTD SVG 20010904//EN"
 "http://www.w3.org/TR/2001/REC-SVG-20010904/DTD/svg10.dtd">
<svg version="1.0" xmlns="http://www.w3.org/2000/svg"
 width="750.000000pt" height="750.000000pt" viewBox="0 0 750.000000 750.000000"
 preserveAspectRatio="xMidYMid meet">
<metadata>
Created by potrace 1.14, written by Peter Selinger 2001-2017
</metadata>
<g transform="translate(0.000000,750.000000) scale(0.100000,-0.100000)"
fill="#000000" stroke="none">
<path d="M887 6801 c-2 -3 -3 -100 -3 -216 l1 -210 439 -3 438 -2 -4 45 c-2
25 0 45 4 45 4 0 5 6 2 14 -9 23 -10 116 -1 116 5 0 5 5 2 10 -8 12 -10 159
-2 166 2 3 3 13 0 23 -4 17 -28 18 -439 19 -239 0 -436 -3 -437 -7z"/>
<path d="M5750 6591 l0 -220 438 1 437 1 1 218 0 219 -438 0 -438 0 0 -219z"/>
<path d="M4173 6726 c-4 -5 -5 -103 -4 -218 2 -164 -1 -208 -11 -209 -7 -1
-105 -2 -218 -3 l-205 -1 -3 -217 -2 -218 32 -1 c18 0 117 -1 220 -1 l186 0
-1 -1531 -2 -1532 -215 0 -215 0 -5 -219 -5 -219 -200 1 c-110 0 -207 -1 -216
-4 -13 -4 -15 -32 -15 -217 l1 -212 -218 -3 c-119 -1 -217 -6 -218 -10 -5 -38
-3 -841 2 -852 6 -13 37 -15 206 -14 109 0 205 -3 213 -7 13 -6 15 -35 14
-183 l-1 -176 438 0 438 0 -1 183 0 182 -437 0 -437 0 1 435 0 435 218 3 217
2 1 48 c0 26 1 124 2 217 l2 170 216 1 217 1 0 -650 c0 -431 4 -652 10 -656 9
-5 401 -7 423 -2 3 0 5 286 4 633 0 348 1 643 3 654 4 21 7 21 214 20 115 0
212 3 215 8 10 16 8 418 -2 424 -5 4 -104 7 -220 7 l-210 0 0 1968 c0 1321 -3
1967 -10 1968 -54 6 -418 2 -422 -5z"/>
<path d="M6642 6369 c-16 -6 -17 -81 -16 -1090 1 -596 2 -1087 3 -1090 0 -3
94 -6 209 -5 114 1 212 -2 217 -5 6 -5 10 -161 9 -438 l-1 -431 219 0 218 0
-2 437 -3 438 -212 -1 c-185 0 -213 2 -217 15 -2 9 -4 499 -3 1088 0 590 -2
1076 -6 1079 -8 9 -393 11 -415 3z"/>
<path d="M449 6343 c-1 -35 -1 -2134 0 -2150 1 -8 59 -11 218 -10 l218 2 0
1093 0 1092 -217 0 -218 0 -1 -27z"/>
<path d="M3297 5846 c-2 -6 -3 -103 -3 -216 l1 -205 218 -2 217 -2 0 85 c1 46
1 140 1 209 0 69 0 129 -1 134 0 14 -428 11 -433 -3z"/>
<path d="M2891 5420 l-35 -5 0 -1083 c-1 -596 1 -1087 4 -1091 3 -4 102 -8
220 -8 l215 -1 0 1094 0 1094 -25 1 c-169 3 -352 3 -379 -1z"/>
<path d="M14 4175 c-2 -5 -3 -203 -2 -439 l3 -430 216 0 216 -1 1 -1065 c0
-586 1 -1078 1 -1095 l1 -30 212 2 c117 1 215 2 218 2 3 1 5 493 5 1093 l0
1093 -212 0 c-117 1 -215 4 -219 8 -4 4 -7 200 -7 437 0 236 -2 430 -6 431
-75 6 -425 1 -427 -6z"/>
<path d="M6628 3303 c-3 -5 -4 -497 -3 -1095 l0 -1087 -80 0 c-44 0 -241 0
-437 0 l-358 -1 0 -220 0 -219 426 0 c234 0 431 2 437 5 10 3 13 58 12 215 0
116 3 213 7 215 4 3 102 5 218 4 l210 0 1 28 c1 34 1 2133 0 2150 -1 9 -51 12
-215 12 -118 0 -216 -3 -218 -7z"/>
<path d="M3302 3225 c-7 -10 -11 -402 -5 -420 4 -11 417 -14 428 -4 7 8 8 419
0 427 -10 10 -417 7 -423 -3z"/>
<path d="M886 1111 c-1 -3 -2 -100 -2 -216 l1 -210 437 -3 438 -2 0 42 c0 86
-1 111 -6 119 -2 4 0 10 6 14 6 4 7 11 4 17 -9 14 -9 103 0 117 4 6 4 11 -1
11 -4 0 -7 26 -5 59 l2 59 -435 -1 c-240 0 -437 -3 -439 -6z"/>
</g>
</svg>
